<?xml version="1.0" encoding="UTF-8"?>
<svg width="48px" height="48px" viewBox="0 0 48 48" version="1.1" xmlns="http://www.w3.org/2000/svg" xmlns:xlink="http://www.w3.org/1999/xlink">
    <defs>
        <circle id="path-1" cx="24" cy="24" r="24"></circle>
    </defs>
    <g id="Build" stroke="none" stroke-width="1" fill="none" fill-rule="evenodd">
        <g id="Web-Details-003-Desktop" transform="translate(-307.000000, -1144.000000)">
            <g id="Signup-Banner-Desktop" transform="translate(275.000000, 1112.000000)">
                <g id="Signup-Banner">
                    <g id="illustration" transform="translate(32.000000, 32.000000)">
                        <mask id="mask-2" fill="white">
                            <use xlink:href="#path-1"></use>
                        </mask>
                        <use id="Mask" fill="#F5F5F5" xlink:href="#path-1"></use>
                        <g id="Full-illustration" mask="url(#mask-2)">
                            <g transform="translate(6.000000, 3.428571)">
                                <path d="M4.85679716,28.823308 C4.85679716,28.823308 0.126864184,20.5649584 2.35010801,13.5575146 C2.35010801,13.5575146 -0.347979788,10.5241175 0.0377396231,8.21794516 C0.0377396231,8.21794516 1.34782197,10.8037433 3.04362372,10.6644244 C3.04362372,10.6644244 4.60013791,0.460550726 16.4639319,0.879989516 C16.4639319,0.879989516 23.3664587,-0.307679331 28.855168,11.4341366 C28.855168,11.4341366 32.1518027,21.3766639 37.5465172,14.9284718 C37.5465172,14.9284718 38.6900389,13.7403089 38.6900389,13.0412442 C38.6900389,13.0412442 40.1228502,19.8901016 31.5654313,27.5793187 C31.5654313,27.5793187 35.2667792,27.6479901 36.8081957,26.3210024 C36.8081957,26.3205083 29.2102052,39.5730944 14.089225,35.6766118 C14.089225,35.6766118 7.25390694,33.6757553 4.85679716,28.823308" id="Fill-2" fill="#442219"></path>
                                <path d="M28.6636329,22.4422848 C28.6636329,28.7445203 23.7568289,33.8546131 17.7032728,33.8546131 C11.6506977,33.8546131 6.74438421,28.7445203 6.74438421,22.4422848 L6.74438421,13.103099 C6.74438421,6.80282347 11.6506977,1.69273066 17.7032728,1.69273066 C23.7568289,1.69273066 28.6636329,6.80282347 28.6636329,13.103099 L28.6636329,22.4422848" id="Fill-4" fill="#F8D2AC"></path>
                                <path d="M29.5066809,18.3875633 C29.5066809,18.3875633 28.1055293,17.8687636 24.354695,17.8687636 C20.8943844,17.547349 18.29843,18.5883267 18.29843,18.5883267 L16.4032919,18.5883267 C16.4032919,18.5883267 13.8559184,17.7408734 10.5928176,17.7746557 C7.33212182,17.8079554 5.14645998,18.4493366 5.14645998,18.4493366 C5.14645998,18.4493366 4.97330015,19.6283392 5.11230901,20.5380484 C5.94491919,20.4367015 6.04977709,21.3801931 6.04977709,21.3801931 C6.04977709,21.3801931 6.01466412,22.0543914 6.53462461,23.5716996 C7.49133266,26.3606704 10.4711247,26.1922415 10.4711247,26.1922415 C10.8006094,26.273319 12.2840119,26.3930049 14.219554,25.0725993 C16.4032919,23.1518338 16.9386443,20.709373 16.9386443,20.709373 C16.9386443,20.709373 17.309495,20.309294 17.8866944,20.6697994 C18.7106466,24.1522727 20.2763,25.3529924 22.4600379,25.9533523 C24.6432947,26.5532295 26.2931231,25.9533523 27.362866,24.7917235 C28.434052,23.63106 28.4758989,22.3502279 28.5591119,21.5100137 C28.6404008,20.6697994 29.423468,20.5491483 29.423468,20.5491483 L29.5066809,18.3875633 L29.5066809,18.3875633 Z M13.6529366,23.9423398 C12.3349979,25.0199954 10.6346646,25.1889069 9.2811319,24.6498378 C7.92759923,24.1098035 7.37252578,22.7628547 7.51153464,20.9434361 C7.65054351,19.123535 9.42062176,19.0554878 9.42062176,19.0554878 C9.42062176,19.0554878 11.183966,18.8527939 12.1257631,18.9440061 C12.5490427,18.9855101 13.9737633,18.9531756 14.9357623,20.200708 C15.3874209,21.0095529 14.9694323,22.8632364 13.6529366,23.9423398 L13.6529366,23.9423398 Z M25.1377622,24.6498378 C23.7842296,25.1889069 22.0843773,25.0199954 20.7659576,23.9423398 C19.4489809,22.8632364 19.0319543,21.0095529 19.4826508,20.200708 C20.4446499,18.9531756 21.8712945,18.9855101 22.293131,18.9440061 C23.2349281,18.8527939 24.9977914,19.0554878 24.9977914,19.0554878 C24.9977914,19.0554878 26.7678696,19.123535 26.9063975,20.9434361 C27.0458874,22.7628547 26.4908139,24.1098035 25.1377622,24.6498378 L25.1377622,24.6498378 Z" id="Fill-7" fill="#1A1919"></path>
                                <path d="M13.1552706,22.0054985 C12.9711074,22.0054985 12.8246355,21.8795632 12.8246355,21.7268416 C12.8246355,21.2558835 12.3637502,20.871281 11.8045808,20.871281 C11.2406404,20.871281 10.7835719,21.2558835 10.7835719,21.7268416 C10.7835719,21.8795632 10.6342374,22.0054985 10.4500741,22.0054985 C10.266865,22.0054985 10.1165763,21.8795632 10.1165763,21.7268416 C10.1165763,20.9476418 10.8727909,20.3127679 11.8045808,20.3127679 C12.7335081,20.3127679 13.4887684,20.9476418 13.4887684,21.7268416 C13.4887684,21.8795632 13.3418195,22.0054985 13.1552706,22.0054985" id="Fill-56-Copy" fill="#262521"></path>
                                <path d="M24.1157551,22.0054985 C23.9315397,22.0054985 23.7821629,21.8803628 23.7821629,21.7268416 C23.7821629,21.2558835 23.3259195,20.871281 22.7618195,20.871281 C22.2005829,20.871281 21.741476,21.2558835 21.741476,21.7268416 C21.741476,21.8803628 21.5940082,22.0054985 21.4097928,22.0054985 C21.2241457,22.0054985 21.0762007,21.8803628 21.0762007,21.7268416 C21.0762007,20.9476418 21.8335837,20.3127679 22.7618195,20.3127679 C23.6919642,20.3127679 24.4483928,20.9476418 24.4483928,21.7268416 C24.4483928,21.8803628 24.299016,22.0054985 24.1157551,22.0054985" id="Fill-57-Copy" fill="#262521"></path>
                                <path d="M27.5915214,14.2604698 C27.5915214,14.2604698 31.9927837,14.1797702 33.7219211,9.52464983 C33.7219211,9.52464983 31.6786179,11.1295159 29.7127534,9.68364734 C29.7127534,9.68364734 31.0497961,6.39321555 29.7127534,4.14563448 C29.7127534,4.14563448 28.6124378,8.39965841 27.1984465,7.67720448 C27.1989366,7.67720448 24.5263216,-0.19101051 16.3531089,0.051088413 C16.3531089,0.051088413 8.10147722,-1.31840371 5.90133618,10.1236525 L5.90133618,13.9732175 L7.31532747,13.9732175 L7.31532747,13.9395927 C7.31532747,13.9395927 9.75170552,12.8957813 11.4024239,7.75790412 C11.4024239,7.75790412 14.1524777,15.4647198 26.1775301,14.2604698" id="Fill-8" fill="#442219"></path>
                                <polygon id="Fill-12" fill="#171513" points="6.74438421 39.7791704 30.3497289 39.7791704 30.3497289 82.9438021 6.74438421 82.9438021"></polygon>
                                <polyline id="Fill-13" fill="#F8D2AC" points="12.6457204 39.7791704 18.1260269 53.3210157 23.6053447 39.7791704 12.6457204 39.7791704"></polyline>
                                <path d="M21.9192487,41.2540838 C21.9192487,43.2439896 20.2218354,44.8573624 18.1260343,44.8573624 C16.0312367,44.8573624 14.3318164,43.2439896 14.3318164,41.2540838 L14.3318164,38.304257 C14.3318164,36.315781 16.0312367,34.7009784 18.1260343,34.7009784 C20.2218354,34.7009784 21.9192487,36.315781 21.9192487,38.304257 L21.9192487,41.2540838" id="Fill-14" fill="#F8D2AC"></path>
                                <polygon id="Fill-15" fill="#F8D2AC" points="14.0215348 30.9175195 21.809822 30.9175195 21.809822 42.5389985 14.0215348 42.5389985"></polygon>
                                <path d="M28.6860736,39.7791704 C28.6860736,39.7791704 25.2914408,39.7791704 25.2914408,43.2700295 L25.2914408,76.0674817 C25.2914408,76.0674817 25.2914408,79.5583408 28.6860736,79.5583408 L30.3272882,79.5583408 C30.3272882,79.5583408 33.7219211,79.5583408 33.7219211,76.0674817 L33.7219211,43.2700295 C33.7219211,43.2700295 33.7219211,39.7791704 30.3272882,39.7791704 L28.6860736,39.7791704" id="Fill-18" fill="#171513"></path>
                                <path d="M5.08053744,39.7791704 C5.08101285,39.7791704 1.68609605,39.7791704 1.68609605,43.2700295 L1.68609605,76.0674817 C1.68609605,76.0674817 1.68609605,79.5583408 5.08053744,79.5583408 L6.72165952,79.5583408 C6.72165952,79.5583408 10.1165763,79.5583408 10.1165763,76.0674817 L10.1165763,43.2700295 C10.1165763,43.2700295 10.1165763,39.7791704 6.72165952,39.7791704 L5.08053744,39.7791704" id="Fill-19" fill="#171513"></path>
                                <polyline id="Fill-34" fill="#F8D2AC" points="12.6457204 39.7791704 18.1260269 53.3210157 23.6053447 39.7791704 12.6457204 39.7791704"></polyline>
                                <polyline id="Fill-35" fill="#FFFFFE" points="12.6457204 39.7791704 18.1260269 53.3210157 23.6053447 39.7791704 12.6457204 39.7791704"></polyline>
                                <path d="M17.8597835,27.9300558 L17.2817083,28.3468071 L16.703633,27.9300558 C15.7286161,28.1174224 15.3503054,28.7897126 14.3318164,29.1211414 C14.9285226,29.9593603 15.8533396,30.4691518 17.2817083,30.4691518 C18.7095594,30.4691518 19.6364464,29.9593603 20.2331526,29.1211414 C19.2141461,28.7897126 18.8337654,28.1174224 17.8597835,27.9300558" id="Fill-82" fill="#D7365F"></path>
                            </g>
                        </g>
                    </g>
                </g>
            </g>
        </g>
    </g>
</svg>
